<svg xmlns="http://www.w3.org/2000/svg" xmlns:xlink="http://www.w3.org/1999/xlink" viewBox="0 0 1440 839"><defs><style>.cls-1,.cls-2,.cls-3,.cls-4,.cls-6,.cls-9{fill:none;}.cls-1,.cls-2,.cls-3,.cls-4{stroke:#4d6477;stroke-width:2px;}.cls-1,.cls-3,.cls-6,.cls-9{stroke-linecap:round;}.cls-1,.cls-4{stroke-linejoin:round;}.cls-2,.cls-3,.cls-6,.cls-9{stroke-miterlimit:10;}.cls-5{fill:url(#linear-gradient);}.cls-6,.cls-9{stroke:#fff;}.cls-6{stroke-width:28.21px;}.cls-7{fill:#fff;}.cls-8{fill:#4d6477;}.cls-9{stroke-width:21.72px;}</style><linearGradient id="linear-gradient" x1="1063.77" y1="126.58" x2="1063.77" y2="728.44" gradientUnits="userSpaceOnUse"><stop offset="0" stop-color="#ebb761"/><stop offset="0.49" stop-color="#e9b560"/><stop offset="0.7" stop-color="#e2b05d"/><stop offset="0.86" stop-color="#d5a658"/><stop offset="0.98" stop-color="#c49851"/><stop offset="1" stop-color="#c19650"/></linearGradient></defs><title>header-background</title><g id="Layer_2" data-name="Layer 2"><rect class="cls-1" x="583.25" y="57.78" width="52" height="39.62" rx="2.48"/><polyline class="cls-1" points="624.11 83.78 616.68 75.11 609.25 83.78"/><polyline class="cls-1" points="611.99 80.59 608.01 75.11 599.35 85.02"/><circle class="cls-1" cx="596.87" cy="70.16" r="3.71"/><path class="cls-2" d="M995.37,686l2.24,4.55a2,2,0,0,0,1.48,1.07l5,.73a2,2,0,0,1,1.08,3.34l-3.62,3.53A1.94,1.94,0,0,0,1001,701l.86,5A2,2,0,0,1,999,708l-4.49-2.36a2,2,0,0,0-1.82,0L988.22,708a2,2,0,0,1-2.84-2.06l.85-5a2,2,0,0,0-.56-1.73L982,695.7a2,2,0,0,1,1.09-3.34l5-.73a2,2,0,0,0,1.48-1.07l2.24-4.55A2,2,0,0,1,995.37,686Z"/><path class="cls-1" d="M215.63,88.72c0-1.63-.21-3.56-1.27-4.63s-3-1.27-4.57-1.27c1.61,0,3.52-.21,4.57-1.28s1.27-3,1.27-4.63c0,1.63.21,3.56,1.26,4.63s3,1.28,4.58,1.28c-1.61,0-3.52.2-4.58,1.27S215.63,87.09,215.63,88.72Z"/><path class="cls-1" d="M626.57,155.16c0-1.63-.21-3.56-1.26-4.63s-3-1.28-4.58-1.28c1.61,0,3.52-.21,4.58-1.27s1.26-3,1.26-4.63c0,1.63.21,3.56,1.26,4.63s3,1.27,4.58,1.27c-1.61,0-3.52.21-4.58,1.28S626.57,153.53,626.57,155.16Z"/><polygon class="cls-1" points="370.21 68.02 367.68 71.33 363.58 70.77 362.01 66.9 364.54 63.59 368.64 64.15 370.21 68.02"/><path class="cls-1" d="M733.93,191.53v38.35a.71.71,0,0,1-.71.71H695.28a.71.71,0,0,1-.71-.71V179.29a.7.7,0,0,1,.71-.7H721a.7.7,0,0,1,.49.2L733.72,191A.71.71,0,0,1,733.93,191.53Z"/><path class="cls-1" d="M721.28,178.92v11.33a1,1,0,0,0,1,1h11.33"/><path class="cls-1" d="M721.23,218.48H710.66a1.82,1.82,0,0,0-1.81,1.82h0a1.83,1.83,0,0,1-1.82,1.82h-3.34a1.82,1.82,0,0,1-1.82-1.82V201.48a3,3,0,0,1,3-2.95H711a1,1,0,0,0,.67-.24l1.29-1.09a1.07,1.07,0,0,1,.66-.24h2.89a1,1,0,0,1,.66.24l1.29,1.09a1,1,0,0,0,.67.24h2.13a5.41,5.41,0,0,1,5.4,5.41v9.14A5.4,5.4,0,0,1,721.23,218.48Z"/><line class="cls-1" x1="704.93" y1="202.01" x2="707.46" y2="202.01"/><path class="cls-1" d="M722.42,208.7a6.36,6.36,0,1,1-12.71,0v0a6.36,6.36,0,0,1,12.71,0Z"/><path class="cls-2" d="M304.37,79l2.24,4.55a2,2,0,0,0,1.48,1.07l5,.73a2,2,0,0,1,1.08,3.34l-3.62,3.53A1.94,1.94,0,0,0,310,94l.86,5A2,2,0,0,1,308,101l-4.49-2.36a2,2,0,0,0-1.82,0L297.22,101A2,2,0,0,1,294.38,99l.85-5a2,2,0,0,0-.56-1.73L291,88.7a2,2,0,0,1,1.09-3.34l5-.73a2,2,0,0,0,1.48-1.07L300.86,79A2,2,0,0,1,304.37,79Z"/><path class="cls-1" d="M420.63,114.72c0-1.63-.21-3.56-1.27-4.63s-3-1.27-4.57-1.27c1.61,0,3.52-.21,4.57-1.28s1.27-3,1.27-4.63c0,1.63.21,3.56,1.26,4.63s3,1.28,4.58,1.28c-1.61,0-3.52.2-4.58,1.27S420.63,113.09,420.63,114.72Z"/><path class="cls-1" d="M761.56,79.62c0-1.63-.21-3.56-1.26-4.62s-3-1.28-4.58-1.28c1.61,0,3.52-.21,4.58-1.28s1.26-3,1.26-4.62c0,1.63.21,3.55,1.26,4.62s3,1.28,4.58,1.28c-1.61,0-3.52.21-4.58,1.28S761.56,78,761.56,79.62Z"/><path class="cls-1" d="M504.57,82.16c0-1.63-.21-3.56-1.26-4.63s-3-1.28-4.58-1.28c1.61,0,3.52-.21,4.58-1.27s1.26-3,1.26-4.63c0,1.63.21,3.56,1.26,4.63s3,1.27,4.58,1.27c-1.61,0-3.52.21-4.58,1.28S504.57,80.53,504.57,82.16Z"/><polygon class="cls-1" points="696.21 109.02 693.68 112.33 689.58 111.77 688.01 107.9 690.54 104.59 694.64 105.15 696.21 109.02"/><polygon class="cls-1" points="725.21 358.02 722.68 361.33 718.58 360.77 717.01 356.9 719.54 353.59 723.64 354.15 725.21 358.02"/><polyline class="cls-1" points="804 98.84 815 98.84 815 109.84"/><path class="cls-1" d="M810.72,117.81v11.61a6.92,6.92,0,0,1-6.92,6.92H783a5.54,5.54,0,0,1-5.53-5.53V108.65a5.54,5.54,0,0,1,5.53-5.53h13.25"/><line class="cls-1" x1="814.5" y1="99.34" x2="792.5" y2="121.34"/><rect class="cls-1" x="682.25" y="452.78" width="52" height="39.62" rx="2.48"/><polyline class="cls-1" points="723.11 478.78 715.68 470.11 708.25 478.78"/><polyline class="cls-1" points="710.99 475.59 707.01 470.11 698.35 480.02"/><circle class="cls-1" cx="695.87" cy="465.16" r="3.71"/><path class="cls-2" d="M960.37,83l2.24,4.55a2,2,0,0,0,1.48,1.07l5,.73a2,2,0,0,1,1.08,3.34l-3.62,3.53A1.94,1.94,0,0,0,966,98l.86,5A2,2,0,0,1,964,105l-4.49-2.36a2,2,0,0,0-1.82,0L953.22,105a2,2,0,0,1-2.84-2.06l.85-5a2,2,0,0,0-.56-1.73L947,92.7a2,2,0,0,1,1.09-3.34l5-.73a2,2,0,0,0,1.48-1.07L956.86,83A2,2,0,0,1,960.37,83Z"/><path class="cls-3" d="M1094.31,108.75H1082.7a1.94,1.94,0,0,1-1.94-1.8l-1.38-18.63h18.25L1096.25,107A2,2,0,0,1,1094.31,108.75Z"/><polygon class="cls-3" points="1092.64 88.32 1084.37 88.32 1086.13 84.42 1090.88 84.42 1092.64 88.32"/><line class="cls-3" x1="1077.56" y1="88.32" x2="1099.45" y2="88.32"/><line class="cls-3" x1="1088.5" y1="92.09" x2="1088.5" y2="104.98"/><line class="cls-3" x1="1093.25" y1="92.09" x2="1092.3" y2="104.98"/><line class="cls-3" x1="1083.76" y1="92.09" x2="1084.71" y2="104.98"/><path class="cls-1" d="M696.63,295.72c0-1.63-.21-3.56-1.27-4.63s-3-1.27-4.57-1.27c1.61,0,3.52-.21,4.57-1.28s1.27-3,1.27-4.63c0,1.63.21,3.56,1.26,4.63s3,1.28,4.58,1.28c-1.61,0-3.52.2-4.58,1.27S696.63,294.09,696.63,295.72Z"/><path class="cls-1" d="M712.63,544.72c0-1.63-.21-3.56-1.27-4.63s-3-1.27-4.57-1.27c1.61,0,3.52-.21,4.57-1.28s1.27-3,1.27-4.63c0,1.63.21,3.56,1.26,4.63s3,1.28,4.58,1.28c-1.61,0-3.52.2-4.58,1.27S712.63,543.09,712.63,544.72Z"/><path class="cls-1" d="M648.63,607.72c0-1.63-.21-3.56-1.27-4.63s-3-1.27-4.57-1.27c1.61,0,3.52-.21,4.57-1.28s1.27-3,1.27-4.63c0,1.63.21,3.56,1.26,4.63s3,1.28,4.58,1.28c-1.61,0-3.52.2-4.58,1.27S648.63,606.09,648.63,607.72Z"/><path class="cls-1" d="M678.63,417.72c0-1.63-.21-3.56-1.27-4.63s-3-1.27-4.57-1.27c1.61,0,3.52-.21,4.57-1.28s1.27-3,1.27-4.63c0,1.63.21,3.56,1.26,4.63s3,1.28,4.58,1.28c-1.61,0-3.52.2-4.58,1.27S678.63,416.09,678.63,417.72Z"/><path class="cls-1" d="M901.26,130.6c0-1.63-.21-3.56-1.26-4.63s-3-1.27-4.58-1.27c1.61,0,3.52-.21,4.58-1.28s1.26-3,1.26-4.63c0,1.63.21,3.56,1.26,4.63s3,1.28,4.58,1.28c-1.61,0-3.52.2-4.58,1.27S901.26,129,901.26,130.6Z"/><path class="cls-1" d="M854.57,89.16c0-1.63-.21-3.56-1.26-4.63s-3-1.28-4.58-1.28c1.61,0,3.52-.21,4.58-1.27s1.26-3,1.26-4.63c0,1.63.21,3.56,1.26,4.63s3,1.27,4.58,1.27c-1.61,0-3.52.21-4.58,1.28S854.57,87.53,854.57,89.16Z"/><polygon class="cls-1" points="1311.39 656.93 1308.86 660.24 1304.76 659.68 1303.19 655.81 1305.72 652.51 1309.82 653.07 1311.39 656.93"/><polygon class="cls-1" points="1030.21 82.02 1027.68 85.33 1023.58 84.77 1022.01 80.9 1024.54 77.59 1028.64 78.15 1030.21 82.02"/><rect class="cls-1" x="1180.25" y="99.78" width="52" height="39.62" rx="2.48"/><polyline class="cls-1" points="1221.11 125.78 1213.68 117.11 1206.25 125.78"/><polyline class="cls-1" points="1208.98 122.59 1205.01 117.11 1196.35 127.02"/><circle class="cls-1" cx="1193.87" cy="112.16" r="3.71"/><path class="cls-2" d="M1364.37,69l2.24,4.55a2,2,0,0,0,1.48,1.07l5,.73a2,2,0,0,1,1.08,3.34l-3.62,3.53A1.94,1.94,0,0,0,1370,84l.86,5A2,2,0,0,1,1368,91l-4.49-2.36a2,2,0,0,0-1.82,0L1357.22,91a2,2,0,0,1-2.84-2.06l.85-5a2,2,0,0,0-.56-1.73L1351,78.7a2,2,0,0,1,1.09-3.34l5-.73a2,2,0,0,0,1.48-1.07l2.24-4.55A2,2,0,0,1,1364.37,69Z"/><path class="cls-4" d="M1366.6,132.34v48.25h3.67V132.34a6.12,6.12,0,0,1-1.83.27A6.19,6.19,0,0,1,1366.6,132.34Z"/><path class="cls-4" d="M1370.63,135.18h12.16a1.74,1.74,0,0,1,1.74,1.74v10.42a1.74,1.74,0,0,1-1.74,1.74h-12.16"/><path class="cls-1" d="M1384.53,139.52h12.33a.87.87,0,0,1,.74,1.33l-3.52,5.62,3.52,5.62a.87.87,0,0,1-.74,1.33h-10.59a1.74,1.74,0,0,1-1.74-1.74V146"/><path class="cls-4" d="M1364.77,130.61c0,.74.73,1.39,1.83,1.73a6.19,6.19,0,0,0,1.84.27,6.12,6.12,0,0,0,1.83-.27c1.1-.35,1.83-1,1.83-1.73,0-1.12-1.65-2-3.66-2S1364.77,129.49,1364.77,130.61Z"/><path class="cls-1" d="M1392.63,546.72c0-1.63-.21-3.56-1.27-4.63s-3-1.27-4.57-1.27c1.61,0,3.52-.21,4.57-1.28s1.27-3,1.27-4.63c0,1.63.21,3.56,1.26,4.63s3,1.28,4.58,1.28c-1.61,0-3.52.2-4.58,1.27S1392.63,545.09,1392.63,546.72Z"/><path class="cls-1" d="M1296.26,120.6c0-1.63-.21-3.56-1.26-4.63s-3-1.27-4.58-1.27c1.61,0,3.52-.21,4.58-1.28s1.26-3,1.26-4.63c0,1.63.21,3.56,1.26,4.63s3,1.28,4.58,1.28c-1.61,0-3.52.2-4.58,1.27S1296.26,119,1296.26,120.6Z"/><path class="cls-1" d="M1212.16,789.71c0-1.63-.21-3.55-1.27-4.62s-3-1.28-4.57-1.28c1.61,0,3.52-.21,4.57-1.28s1.27-3,1.27-4.62c0,1.63.21,3.55,1.26,4.62s3,1.28,4.58,1.28c-1.61,0-3.52.21-4.58,1.28S1212.16,788.08,1212.16,789.71Z"/><path class="cls-1" d="M1259.57,79.16c0-1.63-.21-3.56-1.26-4.63s-3-1.28-4.58-1.28c1.61,0,3.52-.21,4.58-1.27s1.26-3,1.26-4.63c0,1.63.21,3.56,1.26,4.63s3,1.27,4.58,1.27c-1.61,0-3.52.21-4.58,1.28S1259.57,77.53,1259.57,79.16Z"/><polygon class="cls-1" points="1409.64 405.12 1407.11 408.43 1403.01 407.87 1401.44 404 1403.97 400.69 1408.07 401.25 1409.64 405.12"/><path class="cls-3" d="M549.31,137.75H537.7a1.94,1.94,0,0,1-1.94-1.8l-1.38-18.63h18.25L551.25,136A2,2,0,0,1,549.31,137.75Z"/><polygon class="cls-3" points="547.64 117.32 539.37 117.32 541.13 113.42 545.88 113.42 547.64 117.32"/><line class="cls-3" x1="532.56" y1="117.32" x2="554.45" y2="117.32"/><line class="cls-3" x1="543.5" y1="121.09" x2="543.5" y2="133.98"/><line class="cls-3" x1="548.25" y1="121.09" x2="547.3" y2="133.98"/><line class="cls-3" x1="538.76" y1="121.09" x2="539.71" y2="133.98"/><path class="cls-1" d="M249.89,789.38c0-1.63-.21-3.56-1.27-4.63s-3-1.28-4.58-1.28c1.62,0,3.52-.21,4.58-1.27s1.27-3,1.27-4.63c0,1.63.2,3.56,1.26,4.63s3,1.27,4.58,1.27c-1.62,0-3.52.21-4.58,1.28S249.89,787.75,249.89,789.38Z"/><path class="cls-1" d="M439.89,752.38c0-1.63-.21-3.56-1.27-4.63s-3-1.28-4.58-1.28c1.62,0,3.52-.21,4.58-1.27s1.27-3,1.27-4.63c0,1.63.2,3.56,1.26,4.63s3,1.27,4.58,1.27c-1.62,0-3.52.21-4.58,1.28S439.89,750.75,439.89,752.38Z"/><path class="cls-1" d="M378.56,786.62c0-1.63-.21-3.56-1.26-4.62s-3-1.28-4.58-1.28c1.61,0,3.52-.21,4.58-1.28s1.26-3,1.26-4.62c0,1.63.21,3.55,1.26,4.62s3,1.28,4.58,1.28c-1.61,0-3.52.21-4.58,1.28S378.56,785,378.56,786.62Z"/><path class="cls-1" d="M538.56,724.62c0-1.63-.21-3.56-1.26-4.62s-3-1.28-4.58-1.28c1.61,0,3.52-.21,4.58-1.28s1.26-3,1.26-4.62c0,1.63.21,3.55,1.26,4.62s3,1.28,4.58,1.28c-1.61,0-3.52.21-4.58,1.28S538.56,723,538.56,724.62Z"/><polygon class="cls-1" points="761.39 780.93 758.86 784.24 754.76 783.68 753.19 779.81 755.72 776.51 759.82 777.07 761.39 780.93"/><polygon class="cls-1" points="319.21 757.02 316.68 760.33 312.58 759.77 311.01 755.9 313.54 752.59 317.64 753.15 319.21 757.02"/><path class="cls-1" d="M618.93,750.53v38.35a.71.71,0,0,1-.71.71H580.28a.71.71,0,0,1-.71-.71V738.29a.7.7,0,0,1,.71-.7H606a.7.7,0,0,1,.49.2L618.72,750A.71.71,0,0,1,618.93,750.53Z"/><path class="cls-1" d="M606.28,737.92v11.33a1,1,0,0,0,1,1h11.33"/><path class="cls-1" d="M606.23,777.48H595.66a1.82,1.82,0,0,0-1.81,1.82h0a1.83,1.83,0,0,1-1.82,1.82h-3.34a1.82,1.82,0,0,1-1.82-1.82V760.48a3,3,0,0,1,3-3H596a1,1,0,0,0,.67-.24l1.29-1.09a1.07,1.07,0,0,1,.66-.24h2.89a1,1,0,0,1,.66.24l1.29,1.09a1,1,0,0,0,.67.24h2.13a5.41,5.41,0,0,1,5.4,5.41v9.14A5.4,5.4,0,0,1,606.23,777.48Z"/><line class="cls-1" x1="589.93" y1="761.01" x2="592.46" y2="761.01"/><path class="cls-1" d="M607.42,767.7a6.36,6.36,0,1,1-12.71,0v0a6.36,6.36,0,0,1,12.71,0Z"/><path class="cls-2" d="M500.37,770l2.24,4.55a2,2,0,0,0,1.48,1.07l5,.73a2,2,0,0,1,1.08,3.34l-3.62,3.53A1.94,1.94,0,0,0,506,785l.86,5A2,2,0,0,1,504,792l-4.49-2.36a2,2,0,0,0-1.82,0L493.22,792a2,2,0,0,1-2.84-2.06l.85-5a2,2,0,0,0-.56-1.73L487,779.7a2,2,0,0,1,1.09-3.34l5-.73a2,2,0,0,0,1.48-1.07l2.24-4.55A2,2,0,0,1,500.37,770Z"/><path class="cls-1" d="M708.63,741.72c0-1.63-.21-3.56-1.27-4.63s-3-1.27-4.57-1.27c1.61,0,3.52-.21,4.57-1.28s1.27-3,1.27-4.63c0,1.63.21,3.56,1.26,4.63s3,1.28,4.58,1.28c-1.61,0-3.52.2-4.58,1.27S708.63,740.09,708.63,741.72Z"/><path class="cls-1" d="M654.26,776.6c0-1.63-.21-3.56-1.26-4.63s-3-1.27-4.58-1.27c1.61,0,3.52-.21,4.58-1.28s1.26-3,1.26-4.63c0,1.63.21,3.56,1.26,4.63s3,1.28,4.58,1.28c-1.61,0-3.52.2-4.58,1.27S654.26,775,654.26,776.6Z"/><polygon class="cls-1" points="630.64 684.12 628.11 687.43 624.01 686.87 622.44 683 624.97 679.69 629.07 680.25 630.64 684.12"/><path class="cls-3" d="M1106.31,789.75H1094.7a1.94,1.94,0,0,1-1.94-1.8l-1.38-18.63h18.25L1108.25,788A2,2,0,0,1,1106.31,789.75Z"/><polygon class="cls-3" points="1104.64 769.32 1096.37 769.32 1098.13 765.42 1102.88 765.42 1104.64 769.32"/><line class="cls-3" x1="1089.56" y1="769.32" x2="1111.45" y2="769.32"/><line class="cls-3" x1="1100.5" y1="773.09" x2="1100.5" y2="785.98"/><line class="cls-3" x1="1105.25" y1="773.09" x2="1104.3" y2="785.98"/><line class="cls-3" x1="1095.76" y1="773.09" x2="1096.71" y2="785.98"/><path class="cls-4" d="M680.6,623.34v48.25h3.67V623.34a6.12,6.12,0,0,1-1.83.27A6.19,6.19,0,0,1,680.6,623.34Z"/><path class="cls-4" d="M684.63,626.18h12.16a1.74,1.74,0,0,1,1.74,1.74v10.42a1.74,1.74,0,0,1-1.74,1.74H684.63"/><path class="cls-1" d="M698.53,630.52h12.33a.87.87,0,0,1,.74,1.33l-3.52,5.62,3.52,5.62a.87.87,0,0,1-.74,1.33H700.27a1.74,1.74,0,0,1-1.74-1.74V637"/><path class="cls-4" d="M678.77,621.61c0,.74.73,1.39,1.83,1.73a6.19,6.19,0,0,0,1.84.27,6.12,6.12,0,0,0,1.83-.27c1.1-.35,1.83-1,1.83-1.73,0-1.12-1.65-2-3.66-2S678.77,620.49,678.77,621.61Z"/><path class="cls-1" d="M1390.56,333.62c0-1.63-.21-3.56-1.26-4.62s-3-1.28-4.58-1.28c1.61,0,3.52-.21,4.58-1.28s1.26-3,1.26-4.62c0,1.63.21,3.55,1.26,4.62s3,1.28,4.58,1.28c-1.61,0-3.52.21-4.58,1.28S1390.56,332,1390.56,333.62Z"/><polygon class="cls-1" points="915.21 750.02 912.68 753.33 908.58 752.77 907.01 748.9 909.54 745.59 913.64 746.15 915.21 750.02"/><path class="cls-1" d="M1379.93,679.53v38.35a.71.71,0,0,1-.71.71h-37.94a.71.71,0,0,1-.71-.71V667.29a.7.7,0,0,1,.71-.7H1367a.7.7,0,0,1,.49.2L1379.72,679A.71.71,0,0,1,1379.93,679.53Z"/><path class="cls-1" d="M1367.28,666.92v11.33a1,1,0,0,0,1,1h11.33"/><path class="cls-1" d="M1367.23,706.48h-10.57a1.82,1.82,0,0,0-1.81,1.82h0a1.83,1.83,0,0,1-1.82,1.82h-3.34a1.82,1.82,0,0,1-1.82-1.82V689.48a3,3,0,0,1,3-3H1357a1,1,0,0,0,.67-.24l1.29-1.09a1.07,1.07,0,0,1,.66-.24h2.89a1,1,0,0,1,.66.24l1.29,1.09a1,1,0,0,0,.67.24h2.13a5.41,5.41,0,0,1,5.4,5.41v9.14A5.4,5.4,0,0,1,1367.23,706.48Z"/><line class="cls-1" x1="1350.93" y1="690.01" x2="1353.46" y2="690.01"/><path class="cls-1" d="M1368.42,696.7a6.36,6.36,0,1,1-12.71,0v0a6.36,6.36,0,0,1,12.71,0Z"/><rect class="cls-1" x="812.25" y="761.78" width="52" height="39.62" rx="2.48"/><polyline class="cls-1" points="853.11 787.78 845.68 779.11 838.25 787.78"/><polyline class="cls-1" points="840.99 784.59 837.01 779.11 828.35 789.02"/><circle class="cls-1" cx="825.87" cy="774.16" r="3.71"/><path class="cls-3" d="M1400.31,475.75H1388.7a1.94,1.94,0,0,1-1.94-1.8l-1.38-18.63h18.25L1402.25,474A2,2,0,0,1,1400.31,475.75Z"/><polygon class="cls-3" points="1398.64 455.32 1390.37 455.32 1392.13 451.42 1396.88 451.42 1398.64 455.32"/><line class="cls-3" x1="1383.56" y1="455.32" x2="1405.45" y2="455.32"/><line class="cls-3" x1="1394.5" y1="459.09" x2="1394.5" y2="471.98"/><line class="cls-3" x1="1399.25" y1="459.09" x2="1398.3" y2="471.98"/><line class="cls-3" x1="1389.76" y1="459.09" x2="1390.71" y2="471.98"/><path class="cls-4" d="M1217.6,680.34v48.25h3.67V680.34a6.12,6.12,0,0,1-1.83.27A6.19,6.19,0,0,1,1217.6,680.34Z"/><path class="cls-4" d="M1221.63,683.18h12.16a1.74,1.74,0,0,1,1.74,1.74v10.42a1.74,1.74,0,0,1-1.74,1.74h-12.16"/><path class="cls-1" d="M1235.53,687.52h12.33a.87.87,0,0,1,.74,1.33l-3.52,5.62,3.52,5.62a.87.87,0,0,1-.74,1.33h-10.59a1.74,1.74,0,0,1-1.74-1.74V694"/><path class="cls-4" d="M1215.77,678.61c0,.74.73,1.39,1.83,1.73a6.19,6.19,0,0,0,1.84.27,6.12,6.12,0,0,0,1.83-.27c1.1-.35,1.83-1,1.83-1.73,0-1.12-1.65-2-3.66-2S1215.77,677.49,1215.77,678.61Z"/><path class="cls-1" d="M1144.63,703.72c0-1.63-.21-3.56-1.27-4.63s-3-1.27-4.57-1.27c1.61,0,3.52-.21,4.57-1.28s1.27-3,1.27-4.63c0,1.63.21,3.56,1.26,4.63s3,1.28,4.58,1.28c-1.61,0-3.52.2-4.58,1.27S1144.63,702.09,1144.63,703.72Z"/><path class="cls-1" d="M1368.63,613.72c0-1.63-.21-3.56-1.27-4.63s-3-1.27-4.57-1.27c1.61,0,3.52-.21,4.57-1.28s1.27-3,1.27-4.63c0,1.63.21,3.56,1.26,4.63s3,1.28,4.58,1.28c-1.61,0-3.52.2-4.58,1.27S1368.63,612.09,1368.63,613.72Z"/><path class="cls-1" d="M1307.63,758.72c0-1.63-.21-3.56-1.27-4.63s-3-1.27-4.57-1.27c1.61,0,3.52-.21,4.57-1.28s1.27-3,1.27-4.63c0,1.63.21,3.56,1.26,4.63s3,1.28,4.58,1.28c-1.61,0-3.52.2-4.58,1.27S1307.63,757.09,1307.63,758.72Z"/><path class="cls-1" d="M1022.89,769.38c0-1.63-.21-3.56-1.27-4.63s-3-1.28-4.58-1.28c1.62,0,3.52-.21,4.58-1.27s1.27-3,1.27-4.63c0,1.63.2,3.56,1.26,4.63s3,1.27,4.58,1.27c-1.62,0-3.52.21-4.58,1.28S1022.89,767.75,1022.89,769.38Z"/><path class="cls-1" d="M1382.56,234.62c0-1.63-.21-3.56-1.26-4.62s-3-1.28-4.58-1.28c1.61,0,3.52-.21,4.58-1.28s1.26-3,1.26-4.62c0,1.63.21,3.55,1.26,4.62s3,1.28,4.58,1.28c-1.61,0-3.52.21-4.58,1.28S1382.56,233,1382.56,234.62Z"/><polygon class="cls-1" points="1396.39 755.93 1393.86 759.24 1389.76 758.68 1388.19 754.81 1390.72 751.51 1394.82 752.07 1396.39 755.93"/><polygon class="cls-1" points="1071.21 719.02 1068.68 722.33 1064.58 721.77 1063.01 717.9 1065.54 714.59 1069.64 715.15 1071.21 719.02"/><polygon class="cls-1" points="1333.21 170.02 1330.68 173.33 1326.58 172.77 1325.01 168.9 1327.54 165.59 1331.64 166.15 1333.21 170.02"/></g><g id="Layer_3" data-name="Layer 3"><path class="cls-5" d="M1230.69,641.46H978A43.5,43.5,0,0,0,934.46,685h0A43.49,43.49,0,0,1,891,728.44H811A43.49,43.49,0,0,1,767.54,685V234.73a70.53,70.53,0,0,1,70.53-70.53H985.41a24.74,24.74,0,0,0,15.9-5.8l30.88-26a24.69,24.69,0,0,1,15.9-5.81h69a24.67,24.67,0,0,1,15.9,5.81l30.89,26a24.72,24.72,0,0,0,15.9,5.8h50.94A129.3,129.3,0,0,1,1360,293.51V512.15A129.31,129.31,0,0,1,1230.69,641.46Z"/><line class="cls-6" x1="840.79" y1="247.44" x2="901.22" y2="247.44"/><path class="cls-7" d="M1288.29,407.52c0,100-81,181-181,181a181,181,0,0,1-181-181c0-.41,0-.79,0-1.2.63-99.42,81.43-179.82,181-179.82s180.37,80.4,181,179.82C1288.29,406.73,1288.29,407.11,1288.29,407.52Z"/><path class="cls-8" d="M1259.33,407.52a152.07,152.07,0,1,1-304.13,0c0-.34,0-.66,0-1a152,152,0,0,1,304.09,0C1259.33,406.86,1259.33,407.18,1259.33,407.52Z"/><path class="cls-9" d="M1095.84,290.25A118,118,0,0,0,994,374.59"/></g></svg>