<svg id="Layer_1" data-name="Layer 1" xmlns="http://www.w3.org/2000/svg" viewBox="0 0 210 156"><defs><style>.cls-1,.cls-2,.cls-3,.cls-4{fill:none;stroke:#394957;stroke-width:2px;}.cls-1,.cls-3{stroke-linecap:round;}.cls-1,.cls-4{stroke-linejoin:round;}.cls-2,.cls-3{stroke-miterlimit:10;}</style></defs><title>pattern</title><polyline class="cls-1" points="62 74.84 73 74.84 73 85.84"/><path class="cls-1" d="M68.72,93.81v11.61a6.92,6.92,0,0,1-6.92,6.92H41a5.54,5.54,0,0,1-5.53-5.53V84.65A5.54,5.54,0,0,1,41,79.12H54.28"/><line class="cls-1" x1="72.5" y1="75.34" x2="50.5" y2="97.34"/><path class="cls-1" d="M134.93,102.53v38.35a.71.71,0,0,1-.71.71H96.28a.71.71,0,0,1-.71-.71V90.29a.7.7,0,0,1,.71-.7H122a.7.7,0,0,1,.49.2L134.72,102A.71.71,0,0,1,134.93,102.53Z"/><path class="cls-1" d="M122.28,89.92v11.33a1,1,0,0,0,1,1h11.33"/><path class="cls-1" d="M122.23,129.48H111.66a1.82,1.82,0,0,0-1.81,1.82h0a1.83,1.83,0,0,1-1.82,1.82h-3.34a1.82,1.82,0,0,1-1.82-1.82V112.48a3,3,0,0,1,2.95-3H112a1,1,0,0,0,.67-.24l1.29-1.09a1.07,1.07,0,0,1,.66-.24h2.89a1,1,0,0,1,.66.24l1.29,1.09a1,1,0,0,0,.67.24h2.13a5.41,5.41,0,0,1,5.4,5.41v9.14A5.4,5.4,0,0,1,122.23,129.48Z"/><line class="cls-1" x1="105.93" y1="113.01" x2="108.46" y2="113.01"/><path class="cls-1" d="M123.42,119.7a6.36,6.36,0,1,1-12.71,0v0a6.36,6.36,0,0,1,12.71,0Z"/><rect class="cls-1" x="16.25" y="12.78" width="52" height="39.62" rx="2.48"/><polyline class="cls-1" points="57.11 38.78 49.68 30.11 42.25 38.78"/><polyline class="cls-1" points="44.98 35.59 41.01 30.11 32.34 40.02"/><circle class="cls-1" cx="29.87" cy="25.16" r="3.71"/><path class="cls-2" d="M135.37,36l2.24,4.55a2,2,0,0,0,1.48,1.07l5,.73a2,2,0,0,1,1.08,3.34l-3.62,3.53A1.94,1.94,0,0,0,141,51l.86,5A2,2,0,0,1,139,58l-4.49-2.36a2,2,0,0,0-1.82,0L128.22,58A2,2,0,0,1,125.38,56l.85-5a2,2,0,0,0-.56-1.73L122,45.7a2,2,0,0,1,1.09-3.34l5-.73a2,2,0,0,0,1.48-1.07L131.86,36A2,2,0,0,1,135.37,36Z"/><path class="cls-3" d="M199.31,41.75H187.7a1.94,1.94,0,0,1-1.94-1.8l-1.38-18.63h18.25L201.25,40A2,2,0,0,1,199.31,41.75Z"/><polygon class="cls-3" points="197.64 21.32 189.37 21.32 191.13 17.42 195.88 17.42 197.64 21.32"/><line class="cls-3" x1="182.56" y1="21.32" x2="204.45" y2="21.32"/><line class="cls-3" x1="193.5" y1="25.09" x2="193.5" y2="37.98"/><line class="cls-3" x1="198.25" y1="25.09" x2="197.3" y2="37.98"/><line class="cls-3" x1="188.76" y1="25.09" x2="189.71" y2="37.98"/><path class="cls-4" d="M161.6,75.34v48.25h3.67V75.34a6.12,6.12,0,0,1-1.83.27A6.19,6.19,0,0,1,161.6,75.34Z"/><path class="cls-4" d="M165.63,78.18h12.16a1.74,1.74,0,0,1,1.74,1.74V90.34a1.74,1.74,0,0,1-1.74,1.74H165.63"/><path class="cls-1" d="M179.53,82.52h12.33a.87.87,0,0,1,.74,1.33l-3.52,5.62,3.52,5.62a.87.87,0,0,1-.74,1.33H181.27a1.74,1.74,0,0,1-1.74-1.74V89"/><path class="cls-4" d="M159.77,73.61c0,.74.73,1.39,1.83,1.73a6.19,6.19,0,0,0,1.84.27,6.12,6.12,0,0,0,1.83-.27c1.1-.35,1.83-1,1.83-1.73,0-1.12-1.65-2-3.66-2S159.77,72.49,159.77,73.61Z"/><path class="cls-1" d="M13.63,83.72c0-1.63-.21-3.56-1.27-4.63s-3-1.27-4.57-1.27c1.61,0,3.52-.21,4.57-1.28s1.27-3,1.27-4.63c0,1.63.21,3.56,1.26,4.63s3,1.28,4.58,1.28c-1.61,0-3.52.2-4.58,1.27S13.63,82.09,13.63,83.72Z"/><path class="cls-1" d="M63.89,149.38c0-1.63-.21-3.56-1.27-4.63s-3-1.28-4.58-1.28c1.62,0,3.52-.21,4.58-1.27s1.27-3,1.27-4.63c0,1.63.2,3.56,1.26,4.63s3,1.27,4.58,1.27c-1.62,0-3.52.21-4.58,1.28S63.89,147.75,63.89,149.38Z"/><path class="cls-1" d="M106.26,73.6c0-1.63-.21-3.56-1.26-4.63s-3-1.27-4.58-1.27c1.61,0,3.52-.21,4.58-1.28s1.26-3,1.26-4.63c0,1.63.21,3.56,1.26,4.63s3,1.28,4.58,1.28c-1.61,0-3.52.2-4.58,1.27S106.26,72,106.26,73.6Z"/><path class="cls-1" d="M152.16,143.71c0-1.63-.21-3.55-1.27-4.62s-3-1.28-4.57-1.28c1.61,0,3.52-.21,4.57-1.28s1.27-3,1.27-4.62c0,1.63.21,3.55,1.26,4.62s3,1.28,4.58,1.28c-1.61,0-3.52.21-4.58,1.28S152.16,142.08,152.16,143.71Z"/><path class="cls-1" d="M174.56,52.62c0-1.63-.21-3.56-1.26-4.62s-3-1.28-4.58-1.28c1.61,0,3.52-.21,4.58-1.28s1.26-3,1.26-4.62c0,1.63.21,3.55,1.26,4.62s3,1.28,4.58,1.28c-1.61,0-3.52.21-4.58,1.28S174.56,51,174.56,52.62Z"/><path class="cls-1" d="M89.57,22.16c0-1.63-.21-3.56-1.26-4.63s-3-1.28-4.58-1.28c1.61,0,3.52-.21,4.58-1.27s1.26-3,1.26-4.63c0,1.63.21,3.56,1.26,4.63s3,1.27,4.58,1.27c-1.61,0-3.52.21-4.58,1.28S89.57,20.53,89.57,22.16Z"/><polygon class="cls-1" points="15.64 120.12 13.11 123.43 9.01 122.87 7.44 119 9.97 115.69 14.07 116.25 15.64 120.12"/><polygon class="cls-1" points="204.39 142.94 201.86 146.24 197.76 145.68 196.19 141.81 198.72 138.51 202.82 139.07 204.39 142.94"/><polygon class="cls-1" points="159.21 13.02 156.68 16.33 152.58 15.77 151.01 11.9 153.54 8.59 157.64 9.15 159.21 13.02"/><polygon class="cls-1" points="204.21 66.02 201.68 69.33 197.58 68.77 196.01 64.9 198.54 61.59 202.64 62.15 204.21 66.02"/></svg>